# xmcd CD database file
#
# Track frame offsets:
#	183
#	16108
#	31075
#	49085
#	62005
#	79725
#	104525
#	117360
#	127133
#	142733
#
# Disc length: 2100 seconds
#
# Revision: 1
# Processed by: cddbd v1.4PL0 Copyright (c) Steve Scherf et al.
# Submitted via: Feurio! 1.62 - http://www.feurio.com
#
DISCID=7d08320a
DTITLE=Doris Ackermann - A Fire Still Burns
DYEAR=1900
DGENRE=
TTITLE0=A Fire Still Burns
TTITLE1=Standin' in the rain
TTITLE2=Without you
TTITLE3=Let's go dancin'
TTITLE4=The end of the road
TTITLE5=If you fall
TTITLE6=Someone like you
TTITLE7=When the son goes down
TTITLE8=A heart is on fire
TTITLE9=I miss you at home
EXTD=
EXTT0=
EXTT1=
EXTT2=
EXTT3=
EXTT4=
EXTT5=
EXTT6=
EXTT7=
EXTT8=
EXTT9=
PLAYORDER=
